<svg width="64" height="64" viewBox="0 0 64 64" fill="none" xmlns="http://www.w3.org/2000/svg">
  <defs>
    <linearGradient id="gradient" x1="0%" y1="0%" x2="100%" y2="100%">
      <stop offset="0%" style="stop-color:#749EFD;stop-opacity:1" />
      <stop offset="50%" style="stop-color:#616CFA;stop-opacity:1" />
      <stop offset="100%" style="stop-color:#D16BFF;stop-opacity:1" />
    </linearGradient>
  </defs>
  <circle cx="32" cy="32" r="28" fill="url(#gradient)"/>
  <circle cx="32" cy="32" r="24" fill="white" opacity="0.9"/>
  <g transform="translate(16, 16)">
    <path d="M16 2C8.268 2 2 7.462 2 14.188c0 3.312 1.456 6.325 3.844 8.5-.344 1.625-1.125 3.875-3.469 5.656-.25.188-.312.531-.156.812.156.281.469.438.781.438 3.625 0 6.469-1.781 7.906-2.969 1.344.406 2.781.625 4.281.625 7.732 0 14-5.462 14-12.188C30 7.462 23.732 2 16 2z" fill="#616CFA"/>
    <circle cx="12" cy="14" r="2" fill="white"/>
    <circle cx="20" cy="14" r="2" fill="white"/>
  </g>
</svg>
